<?xml version="1.0" encoding="UTF-8" standalone="no"?>
<!DOCTYPE svg PUBLIC "-//W3C//DTD SVG 1.1//EN" "http://www.w3.org/Graphics/SVG/1.1/DTD/svg11.dtd">
<svg width="100%" height="100%" viewBox="0 0 50 50" version="1.1" xmlns="http://www.w3.org/2000/svg" xmlns:xlink="http://www.w3.org/1999/xlink" xml:space="preserve" xmlns:serif="http://www.serif.com/" style="fill-rule:evenodd;clip-rule:evenodd;stroke-linejoin:round;stroke-miterlimit:2;">
    <g id="Calque1">
        <path d="M0,25.14C0,37.569 9.027,47.904 20.833,50L20.833,31.944L14.583,31.944L14.583,25L20.833,25L20.833,19.444C20.833,13.194 24.86,9.723 30.556,9.723C32.36,9.723 34.306,10 36.11,10.277L36.11,16.667L32.917,16.667C29.86,16.667 29.167,18.194 29.167,20.14L29.167,25L35.833,25L34.723,31.944L29.167,31.944L29.167,50C40.973,47.904 50,37.571 50,25.14C50,11.313 38.75,0 25,0C11.25,0 0,11.313 0,25.14Z" style="fill:rgb(246,158,123);"/>
    </g>
</svg>
