<?xml version="1.0" encoding="UTF-8" standalone="no"?>
<!DOCTYPE svg PUBLIC "-//W3C//DTD SVG 1.1//EN" "http://www.w3.org/Graphics/SVG/1.1/DTD/svg11.dtd">
<svg width="100%" height="100%" viewBox="0 0 50 50" version="1.1" xmlns="http://www.w3.org/2000/svg" xmlns:xlink="http://www.w3.org/1999/xlink" xml:space="preserve" xmlns:serif="http://www.serif.com/" style="fill-rule:evenodd;clip-rule:evenodd;stroke-linejoin:round;stroke-miterlimit:2;">
    <g transform="matrix(1.28084,0,0,1.28084,-0.623535,-0.616325)">
        <g id="Calque1">
            <path d="M20,13.491C16.416,13.491 13.491,16.416 13.491,20C13.491,23.584 16.416,26.509 20,26.509C23.584,26.509 26.509,23.584 26.509,20C26.509,16.416 23.584,13.491 20,13.491ZM39.522,20C39.522,17.305 39.546,14.634 39.395,11.943C39.243,8.818 38.53,6.045 36.245,3.76C33.955,1.47 31.186,0.762 28.062,0.61C25.366,0.459 22.695,0.483 20.005,0.483C17.31,0.483 14.639,0.459 11.948,0.61C8.823,0.762 6.05,1.475 3.765,3.76C1.475,6.05 0.767,8.818 0.615,11.943C0.464,14.639 0.488,17.31 0.488,20C0.488,22.69 0.464,25.366 0.615,28.057C0.767,31.182 1.479,33.955 3.765,36.24C6.055,38.53 8.823,39.238 11.948,39.39C14.644,39.541 17.314,39.517 20.005,39.517C22.7,39.517 25.371,39.541 28.062,39.39C31.186,39.238 33.96,38.525 36.245,36.24C38.535,33.95 39.243,31.182 39.395,28.057C39.551,25.366 39.522,22.695 39.522,20ZM20,30.015C14.458,30.015 9.985,25.542 9.985,20C9.985,14.458 14.458,9.985 20,9.985C25.542,9.985 30.015,14.458 30.015,20C30.015,25.542 25.542,30.015 20,30.015ZM30.425,11.914C29.131,11.914 28.086,10.869 28.086,9.575C28.086,8.281 29.131,7.236 30.425,7.236C31.719,7.236 32.764,8.281 32.764,9.575C32.764,9.882 32.704,10.187 32.586,10.471C32.469,10.755 32.297,11.013 32.08,11.23C31.862,11.447 31.604,11.619 31.32,11.737C31.036,11.854 30.732,11.915 30.425,11.914Z" style="fill:rgb(246,158,123);fill-rule:nonzero;"/>
        </g>
    </g>
</svg>
