<?xml version="1.0" encoding="UTF-8" standalone="no"?>
<!DOCTYPE svg PUBLIC "-//W3C//DTD SVG 1.1//EN" "http://www.w3.org/Graphics/SVG/1.1/DTD/svg11.dtd">
<svg width="100%" height="100%" viewBox="0 0 50 50" version="1.1" xmlns="http://www.w3.org/2000/svg" xmlns:xlink="http://www.w3.org/1999/xlink" xml:space="preserve" xmlns:serif="http://www.serif.com/" style="fill-rule:evenodd;clip-rule:evenodd;stroke-linejoin:round;stroke-miterlimit:2;">
    <g transform="matrix(6.90783e-17,1.12813,-1.12813,6.90783e-17,50.2739,-0.560924)">
        <path d="M28.15,13L27.625,12.5C26.325,11.15 26.55,10.525 27.825,9.25L34.625,2.375C36.65,0.325 37.025,-0.65 38.95,1.175L39.475,1.675L28.15,13ZM29.475,14.125L40.475,3.125C42.225,5.475 46.325,11.8 44.3,16.475C42.475,20.65 41.575,20.85 39.3,23.975C34.675,29.25 28.85,34.9 24.3,39.15C21.15,41.425 21.025,42.475 16.8,44.15C12.3,45.925 5.8,41.925 3.35,40.25L14.35,29.25L17.3,33.3C18.15,34.45 20.3,33.15 21.8,31.65C24.4,29.025 29.75,23.7 31.8,21.475C33.275,20 34.6,17.85 33.45,16.975L29.475,14.125ZM1.925,39.25L1.4,38.725C-0.3,36.875 0.675,36.475 2.7,34.475L9.55,27.675C10.825,26.45 11.425,26.175 12.725,27.4L13.225,27.925L1.925,39.25Z" style="fill:rgb(246,158,123);fill-rule:nonzero;"/>
    </g>
</svg>
