<?xml version="1.0" encoding="UTF-8" standalone="no"?>
<!DOCTYPE svg PUBLIC "-//W3C//DTD SVG 1.1//EN" "http://www.w3.org/Graphics/SVG/1.1/DTD/svg11.dtd">
<svg width="100%" height="100%" viewBox="0 0 50 50" version="1.1" xmlns="http://www.w3.org/2000/svg" xmlns:xlink="http://www.w3.org/1999/xlink" xml:space="preserve" xmlns:serif="http://www.serif.com/" style="fill-rule:evenodd;clip-rule:evenodd;stroke-linejoin:round;stroke-miterlimit:2;">
    <g transform="matrix(1.2,0,0,1.2,7.00003,-0.200007)">
        <path d="M15,0.167C6.937,0.167 0.417,6.688 0.417,14.75C0.417,25.688 15,41.833 15,41.833C15,41.833 29.583,25.688 29.583,14.75C29.583,6.688 23.063,0.167 15,0.167ZM15,19.958C13.619,19.958 12.294,19.41 11.317,18.433C10.34,17.456 9.792,16.131 9.792,14.75C9.792,13.369 10.34,12.044 11.317,11.067C12.294,10.09 13.619,9.542 15,9.542C16.381,9.542 17.706,10.09 18.683,11.067C19.66,12.044 20.208,13.369 20.208,14.75C20.208,16.131 19.66,17.456 18.683,18.433C17.706,19.41 16.381,19.958 15,19.958Z" style="fill:rgb(246,158,123);fill-rule:nonzero;"/>
    </g>
</svg>
