<svg xmlns="http://www.w3.org/2000/svg" xmlns:xlink="http://www.w3.org/1999/xlink" width="500" zoomAndPan="magnify" viewBox="0 0 375 374.999991" height="500" preserveAspectRatio="xMidYMid meet" version="1.0"><defs><g/><clipPath id="id1"><path d="M 179.359375 126.835938 L 315.859375 126.835938 L 315.859375 263.335938 L 179.359375 263.335938 Z M 179.359375 126.835938 " clip-rule="nonzero"/></clipPath><clipPath id="id2"><path d="M 214 75 L 303 75 L 303 187 L 214 187 Z M 214 75 " clip-rule="nonzero"/></clipPath><clipPath id="id3"><path d="M 264.039062 238.230469 L 203.289062 203.964844 L 280.660156 66.78125 L 341.414062 101.046875 Z M 264.039062 238.230469 " clip-rule="nonzero"/></clipPath><clipPath id="id4"><path d="M 264.039062 238.230469 L 203.289062 203.964844 L 280.660156 66.78125 L 341.414062 101.046875 Z M 264.039062 238.230469 " clip-rule="nonzero"/></clipPath><clipPath id="id5"><path d="M 236.097656 198.15625 L 213.632812 185.484375 L 280.636719 66.679688 L 303.101562 79.347656 Z M 236.097656 198.15625 " clip-rule="nonzero"/></clipPath><clipPath id="id6"><path d="M 236.097656 198.15625 L 213.699219 185.523438 L 280.667969 66.785156 L 303.0625 79.414062 Z M 236.097656 198.15625 " clip-rule="nonzero"/></clipPath><clipPath id="id7"><path d="M 272 88 L 326 88 L 326 220 L 272 220 Z M 272 88 " clip-rule="nonzero"/></clipPath><clipPath id="id8"><path d="M 264.039062 238.230469 L 203.289062 203.964844 L 280.660156 66.78125 L 341.414062 101.046875 Z M 264.039062 238.230469 " clip-rule="nonzero"/></clipPath><clipPath id="id9"><path d="M 264.039062 238.230469 L 203.289062 203.964844 L 280.660156 66.78125 L 341.414062 101.046875 Z M 264.039062 238.230469 " clip-rule="nonzero"/></clipPath><clipPath id="id10"><path d="M 274.4375 219.78125 L 251.972656 207.109375 L 318.980469 88.304688 L 341.441406 100.972656 Z M 274.4375 219.78125 " clip-rule="nonzero"/></clipPath><clipPath id="id11"><path d="M 274.4375 219.78125 L 251.972656 207.109375 L 318.941406 88.371094 L 341.40625 101.039062 Z M 274.4375 219.78125 " clip-rule="nonzero"/></clipPath><clipPath id="id12"><path d="M 218 165 L 278 165 L 278 225 L 218 225 Z M 218 165 " clip-rule="nonzero"/></clipPath><clipPath id="id13"><path d="M 264.039062 238.230469 L 203.289062 203.964844 L 280.660156 66.78125 L 341.414062 101.046875 Z M 264.039062 238.230469 " clip-rule="nonzero"/></clipPath><clipPath id="id14"><path d="M 264.039062 238.230469 L 203.289062 203.964844 L 280.660156 66.78125 L 341.414062 101.046875 Z M 264.039062 238.230469 " clip-rule="nonzero"/></clipPath><clipPath id="id15"><path d="M 221 168 L 275 168 L 275 222 L 221 222 Z M 221 168 " clip-rule="nonzero"/></clipPath><clipPath id="id16"><path d="M 264.039062 238.230469 L 203.289062 203.964844 L 280.660156 66.78125 L 341.414062 101.046875 Z M 264.039062 238.230469 " clip-rule="nonzero"/></clipPath><clipPath id="id17"><path d="M 264.039062 238.230469 L 203.289062 203.964844 L 280.660156 66.78125 L 341.414062 101.046875 Z M 264.039062 238.230469 " clip-rule="nonzero"/></clipPath><clipPath id="id18"><path d="M 229 176 L 267 176 L 267 214 L 229 214 Z M 229 176 " clip-rule="nonzero"/></clipPath><clipPath id="id19"><path d="M 264.039062 238.230469 L 203.289062 203.964844 L 280.660156 66.78125 L 341.414062 101.046875 Z M 264.039062 238.230469 " clip-rule="nonzero"/></clipPath><clipPath id="id20"><path d="M 264.039062 238.230469 L 203.289062 203.964844 L 280.660156 66.78125 L 341.414062 101.046875 Z M 264.039062 238.230469 " clip-rule="nonzero"/></clipPath><clipPath id="id21"><path d="M 234 203 L 265 203 L 265 210 L 234 210 Z M 234 203 " clip-rule="nonzero"/></clipPath><clipPath id="id22"><path d="M 264.039062 238.230469 L 203.289062 203.964844 L 280.660156 66.78125 L 341.414062 101.046875 Z M 264.039062 238.230469 " clip-rule="nonzero"/></clipPath><clipPath id="id23"><path d="M 264.039062 238.230469 L 203.289062 203.964844 L 280.660156 66.78125 L 341.414062 101.046875 Z M 264.039062 238.230469 " clip-rule="nonzero"/></clipPath><clipPath id="id24"><path d="M 230 196 L 267 196 L 267 203 L 230 203 Z M 230 196 " clip-rule="nonzero"/></clipPath><clipPath id="id25"><path d="M 264.039062 238.230469 L 203.289062 203.964844 L 280.660156 66.78125 L 341.414062 101.046875 Z M 264.039062 238.230469 " clip-rule="nonzero"/></clipPath><clipPath id="id26"><path d="M 264.039062 238.230469 L 203.289062 203.964844 L 280.660156 66.78125 L 341.414062 101.046875 Z M 264.039062 238.230469 " clip-rule="nonzero"/></clipPath><clipPath id="id27"><path d="M 230 190 L 267 190 L 267 196 L 230 196 Z M 230 190 " clip-rule="nonzero"/></clipPath><clipPath id="id28"><path d="M 264.039062 238.230469 L 203.289062 203.964844 L 280.660156 66.78125 L 341.414062 101.046875 Z M 264.039062 238.230469 " clip-rule="nonzero"/></clipPath><clipPath id="id29"><path d="M 264.039062 238.230469 L 203.289062 203.964844 L 280.660156 66.78125 L 341.414062 101.046875 Z M 264.039062 238.230469 " clip-rule="nonzero"/></clipPath><clipPath id="id30"><path d="M 233 184 L 265 184 L 265 189 L 233 189 Z M 233 184 " clip-rule="nonzero"/></clipPath><clipPath id="id31"><path d="M 264.039062 238.230469 L 203.289062 203.964844 L 280.660156 66.78125 L 341.414062 101.046875 Z M 264.039062 238.230469 " clip-rule="nonzero"/></clipPath><clipPath id="id32"><path d="M 264.039062 238.230469 L 203.289062 203.964844 L 280.660156 66.78125 L 341.414062 101.046875 Z M 264.039062 238.230469 " clip-rule="nonzero"/></clipPath><clipPath id="id33"><path d="M 238 179 L 260 179 L 260 183 L 238 183 Z M 238 179 " clip-rule="nonzero"/></clipPath><clipPath id="id34"><path d="M 264.039062 238.230469 L 203.289062 203.964844 L 280.660156 66.78125 L 341.414062 101.046875 Z M 264.039062 238.230469 " clip-rule="nonzero"/></clipPath><clipPath id="id35"><path d="M 264.039062 238.230469 L 203.289062 203.964844 L 280.660156 66.78125 L 341.414062 101.046875 Z M 264.039062 238.230469 " clip-rule="nonzero"/></clipPath></defs><g clip-path="url(#id1)"><path fill="#ebe3d4" d="M 247.609375 126.835938 C 209.914062 126.835938 179.359375 157.394531 179.359375 195.085938 C 179.359375 232.78125 209.914062 263.335938 247.609375 263.335938 C 285.304688 263.335938 315.859375 232.78125 315.859375 195.085938 C 315.859375 157.394531 285.304688 126.835938 247.609375 126.835938 " fill-opacity="1" fill-rule="nonzero"/></g><g fill="#17171b" fill-opacity="1"><g transform="translate(36.600489, 159.225564)"><g><path d="M 27.34375 -28.015625 C 25.835938 -29.777344 24.910156 -30.617188 23.402344 -31.957031 L 24.324219 -33.636719 C 24.910156 -34.558594 24.242188 -35.648438 23.148438 -35.648438 L 19.125 -35.648438 C 18.535156 -36.320312 17.363281 -37.492188 17.109375 -37.828125 C 14.59375 -40.679688 13.589844 -43.699219 14.007812 -46.886719 C 14.59375 -51.585938 19.710938 -52.507812 21.722656 -48.0625 L 22.5625 -45.882812 C 22.898438 -44.957031 23.570312 -44.539062 24.574219 -44.539062 C 26.589844 -44.539062 28.769531 -44.957031 31.035156 -45.714844 C 31.875 -46.046875 32.292969 -46.550781 32.125 -47.558594 C 31.285156 -54.605469 25.75 -62.824219 13.421875 -59.722656 C 8.050781 -58.378906 3.941406 -53.679688 3.4375 -47.140625 C 3.019531 -41.519531 4.863281 -36.402344 8.890625 -32.042969 L 11.238281 -29.691406 L 9.898438 -27.34375 C 9.394531 -26.421875 10.066406 -25.246094 11.15625 -25.332031 L 15.683594 -25.332031 L 16.441406 -24.574219 C 20.800781 -20.128906 22.5625 -19.375 22.480469 -14.425781 C 22.480469 -12.164062 20.800781 -9.980469 18.789062 -9.476562 C 16.691406 -8.976562 15.015625 -9.898438 13.671875 -12.246094 C 13.253906 -13.085938 13.085938 -13.589844 12.832031 -14.59375 C 12.75 -15.183594 12.582031 -15.515625 12.582031 -15.683594 C 12.078125 -17.445312 11.492188 -17.949219 9.8125 -17.867188 C 8.890625 -17.867188 6.960938 -17.613281 4.195312 -17.195312 C 2.433594 -16.941406 2.683594 -14.847656 2.851562 -13.589844 C 3.269531 -10.820312 4.445312 -7.882812 6.457031 -4.78125 C 7.128906 -3.773438 8.21875 -2.851562 9.644531 -1.929688 C 11.996094 -0.503906 14.761719 0.167969 17.949219 0 C 23.652344 -0.335938 25.246094 0.25 29.023438 -4.195312 C 30.867188 -6.375 32.042969 -8.808594 32.375 -11.492188 C 33.214844 -17.613281 31.621094 -23.148438 27.34375 -28.015625 Z M 27.34375 -28.015625 "/></g></g></g><g fill="#17171b" fill-opacity="1"><g transform="translate(72.411757, 159.225564)"><g><path d="M 33.636719 -5.03125 C 33.550781 -5.703125 32.292969 -12.832031 30.027344 -26.503906 L 32.878906 -28.183594 C 33.300781 -28.433594 33.550781 -28.769531 33.550781 -29.355469 C 33.550781 -29.859375 33.300781 -30.28125 32.878906 -30.53125 L 28.9375 -32.796875 C 28.855469 -33.46875 27.59375 -40.847656 25.246094 -54.773438 C 24.996094 -56.113281 24.660156 -57.625 24.074219 -58.210938 C 23.738281 -58.460938 23.066406 -58.628906 22.226562 -58.714844 L 14.59375 -58.714844 C 11.910156 -58.714844 11.238281 -58.210938 10.734375 -55.441406 C 9.980469 -50.828125 8.722656 -43.28125 6.878906 -32.878906 L 2.851562 -30.53125 C 2.347656 -30.28125 2.097656 -29.859375 2.097656 -29.355469 C 2.097656 -28.769531 2.347656 -28.433594 2.851562 -28.183594 L 5.789062 -26.421875 C 5.789062 -26.335938 5.703125 -26.085938 5.703125 -25.835938 C 5.199219 -22.898438 4.027344 -15.769531 2.011719 -4.363281 C 1.675781 -1.929688 1.089844 -0.167969 3.4375 -0.0820312 C 5.199219 0 7.382812 0 9.980469 -0.0820312 C 11.15625 -0.0820312 11.828125 -0.671875 12.078125 -1.929688 C 12.75 -5.789062 13.167969 -8.050781 13.253906 -8.722656 C 13.757812 -13 14.425781 -13.167969 18.789062 -13.167969 C 18.789062 -13.167969 19.039062 -13.167969 19.460938 -13.085938 C 22.394531 -13 22.5625 -8.976562 22.648438 -8.136719 C 22.816406 -7.464844 22.898438 -6.457031 23.066406 -5.199219 C 23.402344 -2.515625 23.484375 -1.257812 24.242188 -0.585938 C 24.574219 -0.25 25.078125 -0.0820312 25.917969 0 C 26.589844 0 32.542969 0.25 33.300781 -0.503906 C 33.96875 -1.089844 34.054688 -2.601562 33.636719 -5.03125 Z M 20.464844 -23.484375 C 20.296875 -22.394531 15.601562 -22.3125 15.601562 -23.570312 C 15.601562 -23.820312 15.601562 -24.242188 15.683594 -24.660156 C 15.9375 -28.183594 16.441406 -30.78125 17.027344 -32.375 C 17.363281 -32.964844 18.285156 -33.300781 18.789062 -32.375 C 19.039062 -31.875 19.207031 -31.453125 19.292969 -31.117188 C 19.292969 -30.867188 20.214844 -26.421875 20.382812 -24.910156 C 20.464844 -24.15625 20.464844 -23.652344 20.464844 -23.484375 Z M 20.464844 -23.484375 "/></g></g></g><g fill="#17171b" fill-opacity="1"><g transform="translate(107.971433, 159.225564)"><g><path d="M 39.171875 -30.699219 L 35.898438 -32.628906 L 35.898438 -54.6875 C 35.898438 -56.617188 36.066406 -58.714844 34.304688 -58.796875 C 33.046875 -58.964844 31.707031 -58.964844 30.28125 -58.964844 C 26.167969 -58.964844 26.003906 -58.796875 26.003906 -54.6875 C 26.003906 -55.023438 26.003906 -48.984375 25.917969 -36.488281 C 25.917969 -33.71875 26.003906 -33.46875 25.5 -31.875 C 25.332031 -30.867188 24.074219 -30.699219 23.652344 -31.707031 C 23.484375 -32.042969 23.316406 -32.460938 23.148438 -32.964844 C 22.3125 -35.984375 19.207031 -46.300781 17.867188 -50.746094 C 17.699219 -51.5 17.363281 -52.589844 16.941406 -53.933594 C 16.441406 -55.441406 16.105469 -56.535156 15.9375 -57.121094 C 15.601562 -58.292969 14.847656 -58.882812 13.839844 -58.882812 L 5.871094 -58.882812 C 3.941406 -58.796875 4.109375 -56.785156 4.109375 -54.183594 L 4.109375 -32.628906 L 0.753906 -30.699219 C 0.335938 -30.363281 0.0820312 -30.027344 0.0820312 -29.441406 C 0.0820312 -28.9375 0.335938 -28.601562 0.753906 -28.265625 L 4.109375 -26.335938 L 4.109375 -5.117188 C 4.109375 -2.433594 3.773438 -0.335938 6.375 0 L 9.308594 0 C 14.007812 0 14.089844 0 14.089844 -4.53125 L 14.089844 -22.730469 C 14.089844 -24.492188 14.175781 -25.667969 14.425781 -26.335938 C 14.847656 -27.34375 15.9375 -27.59375 16.441406 -26.589844 L 17.445312 -23.820312 C 17.277344 -24.242188 19.375 -17.867188 23.652344 -4.53125 L 24.074219 -3.355469 C 24.324219 -2.769531 24.410156 -2.347656 24.492188 -2.011719 C 25.332031 0.585938 29.1875 0 31.203125 0 C 35.648438 0 35.898438 -0.167969 35.898438 -4.613281 L 35.898438 -26.335938 L 39.171875 -28.265625 C 39.675781 -28.601562 39.925781 -28.9375 39.925781 -29.441406 C 39.925781 -30.027344 39.675781 -30.363281 39.171875 -30.699219 Z M 39.171875 -30.699219 "/></g></g></g><g fill="#17171b" fill-opacity="1"><g transform="translate(150.995278, 159.225564)"><g><path d="M 27.34375 -28.015625 C 25.835938 -29.777344 24.910156 -30.617188 23.402344 -31.957031 L 24.324219 -33.636719 C 24.910156 -34.558594 24.242188 -35.648438 23.148438 -35.648438 L 19.125 -35.648438 C 18.535156 -36.320312 17.363281 -37.492188 17.109375 -37.828125 C 14.59375 -40.679688 13.589844 -43.699219 14.007812 -46.886719 C 14.59375 -51.585938 19.710938 -52.507812 21.722656 -48.0625 L 22.5625 -45.882812 C 22.898438 -44.957031 23.570312 -44.539062 24.574219 -44.539062 C 26.589844 -44.539062 28.769531 -44.957031 31.035156 -45.714844 C 31.875 -46.046875 32.292969 -46.550781 32.125 -47.558594 C 31.285156 -54.605469 25.75 -62.824219 13.421875 -59.722656 C 8.050781 -58.378906 3.941406 -53.679688 3.4375 -47.140625 C 3.019531 -41.519531 4.863281 -36.402344 8.890625 -32.042969 L 11.238281 -29.691406 L 9.898438 -27.34375 C 9.394531 -26.421875 10.066406 -25.246094 11.15625 -25.332031 L 15.683594 -25.332031 L 16.441406 -24.574219 C 20.800781 -20.128906 22.5625 -19.375 22.480469 -14.425781 C 22.480469 -12.164062 20.800781 -9.980469 18.789062 -9.476562 C 16.691406 -8.976562 15.015625 -9.898438 13.671875 -12.246094 C 13.253906 -13.085938 13.085938 -13.589844 12.832031 -14.59375 C 12.75 -15.183594 12.582031 -15.515625 12.582031 -15.683594 C 12.078125 -17.445312 11.492188 -17.949219 9.8125 -17.867188 C 8.890625 -17.867188 6.960938 -17.613281 4.195312 -17.195312 C 2.433594 -16.941406 2.683594 -14.847656 2.851562 -13.589844 C 3.269531 -10.820312 4.445312 -7.882812 6.457031 -4.78125 C 7.128906 -3.773438 8.21875 -2.851562 9.644531 -1.929688 C 11.996094 -0.503906 14.761719 0.167969 17.949219 0 C 23.652344 -0.335938 25.246094 0.25 29.023438 -4.195312 C 30.867188 -6.375 32.042969 -8.808594 32.375 -11.492188 C 33.214844 -17.613281 31.621094 -23.148438 27.34375 -28.015625 Z M 27.34375 -28.015625 "/></g></g></g><g fill="#f44f2f" fill-opacity="1"><g transform="translate(36.600489, 226.026198)"><g><path d="M 27.34375 -28.015625 C 25.835938 -29.777344 24.910156 -30.617188 23.402344 -31.957031 L 24.324219 -33.636719 C 24.910156 -34.558594 24.242188 -35.648438 23.148438 -35.648438 L 19.125 -35.648438 C 18.535156 -36.320312 17.363281 -37.492188 17.109375 -37.828125 C 14.59375 -40.679688 13.589844 -43.699219 14.007812 -46.886719 C 14.59375 -51.585938 19.710938 -52.507812 21.722656 -48.0625 L 22.5625 -45.882812 C 22.898438 -44.957031 23.570312 -44.539062 24.574219 -44.539062 C 26.589844 -44.539062 28.769531 -44.957031 31.035156 -45.714844 C 31.875 -46.046875 32.292969 -46.550781 32.125 -47.558594 C 31.285156 -54.605469 25.75 -62.824219 13.421875 -59.722656 C 8.050781 -58.378906 3.941406 -53.679688 3.4375 -47.140625 C 3.019531 -41.519531 4.863281 -36.402344 8.890625 -32.042969 L 11.238281 -29.691406 L 9.898438 -27.34375 C 9.394531 -26.421875 10.066406 -25.246094 11.15625 -25.332031 L 15.683594 -25.332031 L 16.441406 -24.574219 C 20.800781 -20.128906 22.5625 -19.375 22.480469 -14.425781 C 22.480469 -12.164062 20.800781 -9.980469 18.789062 -9.476562 C 16.691406 -8.976562 15.015625 -9.898438 13.671875 -12.246094 C 13.253906 -13.085938 13.085938 -13.589844 12.832031 -14.59375 C 12.75 -15.183594 12.582031 -15.515625 12.582031 -15.683594 C 12.078125 -17.445312 11.492188 -17.949219 9.8125 -17.867188 C 8.890625 -17.867188 6.960938 -17.613281 4.195312 -17.195312 C 2.433594 -16.941406 2.683594 -14.847656 2.851562 -13.589844 C 3.269531 -10.820312 4.445312 -7.882812 6.457031 -4.78125 C 7.128906 -3.773438 8.21875 -2.851562 9.644531 -1.929688 C 11.996094 -0.503906 14.761719 0.167969 17.949219 0 C 23.652344 -0.335938 25.246094 0.25 29.023438 -4.195312 C 30.867188 -6.375 32.042969 -8.808594 32.375 -11.492188 C 33.214844 -17.613281 31.621094 -23.148438 27.34375 -28.015625 Z M 27.34375 -28.015625 "/></g></g></g><g fill="#f44f2f" fill-opacity="1"><g transform="translate(72.411757, 226.026198)"><g><path d="M 36.488281 -30.449219 L 33.132812 -32.375 L 33.132812 -54.101562 C 33.132812 -56.367188 33.300781 -58.460938 31.453125 -58.628906 C 30.28125 -58.714844 28.9375 -58.714844 27.511719 -58.714844 C 23.316406 -58.714844 23.234375 -58.628906 23.234375 -54.519531 L 23.234375 -17.445312 C 23.234375 -13.589844 22.648438 -9.898438 18.871094 -9.226562 C 15.851562 -8.808594 14.175781 -11.910156 14.089844 -14.089844 C 14.007812 -15.015625 14.007812 -16.105469 14.007812 -17.363281 L 14.007812 -53.429688 C 14.007812 -56.535156 14.34375 -58.460938 12.078125 -58.628906 C 10.402344 -58.796875 5.621094 -58.882812 4.695312 -58.042969 C 4.277344 -57.625 4.109375 -56.367188 4.109375 -54.351562 L 4.109375 -32.375 L 0.753906 -30.449219 C 0.25 -30.195312 0 -29.859375 0 -29.273438 C 0 -28.769531 0.25 -28.351562 0.753906 -28.097656 L 4.109375 -26.167969 L 4.109375 -15.347656 C 4.109375 -13.421875 4.445312 -10.988281 5.117188 -8.136719 C 5.453125 -6.960938 6.039062 -5.871094 6.710938 -4.863281 C 11.238281 1.007812 18.117188 2.179688 25.164062 -0.25 C 25.667969 -0.417969 26.167969 -0.671875 26.589844 -1.089844 C 31.035156 -4.613281 33.300781 -8.808594 33.132812 -13.757812 C 33.132812 -16.609375 33.046875 -21.554688 33.046875 -26.085938 L 36.488281 -28.097656 C 36.988281 -28.351562 37.15625 -28.769531 37.15625 -29.273438 C 37.15625 -29.859375 36.988281 -30.195312 36.488281 -30.449219 Z M 36.488281 -30.449219 "/></g></g></g><g fill="#f44f2f" fill-opacity="1"><g transform="translate(112.667995, 226.026198)"><g><path d="M 27.34375 -28.015625 C 25.835938 -29.777344 24.910156 -30.617188 23.402344 -31.957031 L 24.324219 -33.636719 C 24.910156 -34.558594 24.242188 -35.648438 23.148438 -35.648438 L 19.125 -35.648438 C 18.535156 -36.320312 17.363281 -37.492188 17.109375 -37.828125 C 14.59375 -40.679688 13.589844 -43.699219 14.007812 -46.886719 C 14.59375 -51.585938 19.710938 -52.507812 21.722656 -48.0625 L 22.5625 -45.882812 C 22.898438 -44.957031 23.570312 -44.539062 24.574219 -44.539062 C 26.589844 -44.539062 28.769531 -44.957031 31.035156 -45.714844 C 31.875 -46.046875 32.292969 -46.550781 32.125 -47.558594 C 31.285156 -54.605469 25.75 -62.824219 13.421875 -59.722656 C 8.050781 -58.378906 3.941406 -53.679688 3.4375 -47.140625 C 3.019531 -41.519531 4.863281 -36.402344 8.890625 -32.042969 L 11.238281 -29.691406 L 9.898438 -27.34375 C 9.394531 -26.421875 10.066406 -25.246094 11.15625 -25.332031 L 15.683594 -25.332031 L 16.441406 -24.574219 C 20.800781 -20.128906 22.5625 -19.375 22.480469 -14.425781 C 22.480469 -12.164062 20.800781 -9.980469 18.789062 -9.476562 C 16.691406 -8.976562 15.015625 -9.898438 13.671875 -12.246094 C 13.253906 -13.085938 13.085938 -13.589844 12.832031 -14.59375 C 12.75 -15.183594 12.582031 -15.515625 12.582031 -15.683594 C 12.078125 -17.445312 11.492188 -17.949219 9.8125 -17.867188 C 8.890625 -17.867188 6.960938 -17.613281 4.195312 -17.195312 C 2.433594 -16.941406 2.683594 -14.847656 2.851562 -13.589844 C 3.269531 -10.820312 4.445312 -7.882812 6.457031 -4.78125 C 7.128906 -3.773438 8.21875 -2.851562 9.644531 -1.929688 C 11.996094 -0.503906 14.761719 0.167969 17.949219 0 C 23.652344 -0.335938 25.246094 0.25 29.023438 -4.195312 C 30.867188 -6.375 32.042969 -8.808594 32.375 -11.492188 C 33.214844 -17.613281 31.621094 -23.148438 27.34375 -28.015625 Z M 27.34375 -28.015625 "/></g></g></g><g fill="#f44f2f" fill-opacity="1"><g transform="translate(148.479263, 226.026198)"><g><path d="M 36.570312 -30.53125 L 33.214844 -32.460938 L 33.214844 -54.6875 C 33.214844 -56.867188 33.550781 -58.796875 31.285156 -58.964844 C 29.691406 -59.132812 24.660156 -59.21875 23.90625 -58.460938 C 23.484375 -58.042969 23.316406 -56.867188 23.316406 -54.773438 C 23.234375 -53.09375 23.234375 -50.578125 23.234375 -47.308594 L 23.234375 -39.839844 C 23.234375 -37.410156 23.402344 -34.808594 20.886719 -34.558594 C 18.703125 -34.222656 15.769531 -34.222656 14.761719 -35.144531 C 13.839844 -36.066406 14.007812 -37.746094 14.007812 -40.429688 L 14.007812 -54.351562 C 14.007812 -56.867188 14.34375 -58.796875 12.078125 -58.964844 C 10.484375 -59.132812 5.453125 -59.21875 4.613281 -58.460938 C 4.195312 -58.042969 4.027344 -56.867188 4.027344 -54.773438 L 4.027344 -32.460938 L 0.671875 -30.53125 C 0.25 -30.28125 0 -29.859375 0 -29.355469 C 0 -28.769531 0.25 -28.433594 0.671875 -28.183594 L 4.027344 -26.253906 L 4.027344 -5.367188 C 4.027344 -2.347656 4.027344 -1.257812 4.613281 -0.585938 C 5.285156 0.0820312 6.710938 0 9.5625 0 C 13.671875 0 14.007812 -0.335938 14.007812 -4.277344 L 14.007812 -19.542969 C 14.007812 -21.890625 13.757812 -24.074219 16.1875 -24.242188 C 18.621094 -24.410156 22.226562 -24.742188 22.898438 -22.394531 C 23.148438 -21.554688 23.234375 -20.382812 23.234375 -18.957031 L 23.316406 -4.363281 C 23.316406 -2.097656 23.066406 -0.25 25.164062 -0.0820312 C 25.917969 0 27.007812 0 28.433594 0 C 32.964844 0 33.214844 -0.167969 33.214844 -4.613281 L 33.214844 -26.253906 L 36.570312 -28.183594 C 36.988281 -28.433594 37.242188 -28.769531 37.242188 -29.355469 C 37.242188 -29.859375 36.988281 -30.28125 36.570312 -30.53125 Z M 36.570312 -30.53125 "/></g></g></g><g fill="#f44f2f" fill-opacity="1"><g transform="translate(189.574165, 226.026198)"><g><path d="M 17.363281 -30.617188 L 14.007812 -32.542969 L 14.007812 -53.933594 C 14.007812 -56.785156 14.34375 -58.628906 12.078125 -58.882812 C 10.484375 -58.964844 5.453125 -59.132812 4.613281 -58.292969 C 4.277344 -57.960938 4.109375 -56.699219 4.109375 -54.6875 L 4.109375 -32.542969 L 0.753906 -30.617188 C 0.25 -30.363281 0 -29.945312 0 -29.441406 C 0 -28.855469 0.25 -28.519531 0.753906 -28.265625 L 4.109375 -26.335938 L 4.109375 -4.695312 C 4.109375 -2.347656 3.859375 -0.25 6.125 -0.0820312 C 6.960938 0 8.136719 0 9.730469 0 C 13.839844 0 14.007812 -0.0820312 14.007812 -4.277344 L 14.007812 -26.335938 L 17.363281 -28.265625 C 17.78125 -28.519531 18.035156 -28.855469 18.035156 -29.441406 C 18.035156 -29.945312 17.78125 -30.363281 17.363281 -30.617188 Z M 17.363281 -30.617188 "/></g></g></g><g clip-path="url(#id2)"><g clip-path="url(#id3)"><g clip-path="url(#id4)"><g clip-path="url(#id5)"><g clip-path="url(#id6)"><path fill="#746c64" d="M 215.105469 186.160156 L 215.152344 186.191406 C 215.203125 186.230469 215.257812 186.265625 215.3125 186.296875 C 216.148438 186.769531 217.320312 186.394531 218.101562 185.402344 L 259.679688 132.882812 L 261.914062 130.058594 L 302.996094 79.375 L 296.171875 75.527344 L 259.160156 125.339844 L 215.117188 183.078125 C 214.273438 184.183594 214.269531 185.507812 215.105469 186.160156 " fill-opacity="1" fill-rule="nonzero"/></g></g></g></g></g><g clip-path="url(#id7)"><g clip-path="url(#id8)"><g clip-path="url(#id9)"><g clip-path="url(#id10)"><g clip-path="url(#id11)"><path fill="#746c64" d="M 273.164062 218.90625 L 273.140625 218.894531 L 273.113281 218.882812 C 273.054688 218.859375 272.996094 218.832031 272.941406 218.800781 C 272.105469 218.328125 271.820312 217.128906 272.261719 215.949219 L 295.699219 153.199219 L 296.960938 149.824219 L 319.078125 88.449219 L 325.902344 92.296875 L 302.421875 149.738281 L 275.796875 217.300781 C 275.285156 218.59375 274.15625 219.285156 273.164062 218.90625 " fill-opacity="1" fill-rule="nonzero"/></g></g></g></g></g><g clip-path="url(#id12)"><g clip-path="url(#id13)"><g clip-path="url(#id14)"><path fill="#2b2b2b" d="M 262.890625 169.277344 C 263.914062 169.851562 264.914062 170.5 265.863281 171.191406 C 266.296875 171.507812 266.730469 171.847656 267.15625 172.199219 C 269.75 174.324219 271.949219 176.863281 273.691406 179.742188 L 273.703125 179.761719 C 273.863281 180.03125 274.011719 180.28125 274.148438 180.527344 C 275.5 182.929688 276.507812 185.496094 277.152344 188.164062 C 277.214844 188.410156 277.269531 188.652344 277.320312 188.890625 C 277.855469 191.378906 278.070312 193.941406 277.957031 196.492188 C 277.945312 196.742188 277.929688 197.007812 277.90625 197.292969 C 277.640625 201.011719 276.683594 204.613281 275.066406 207.992188 C 274.851562 208.445312 274.609375 208.910156 274.359375 209.375 C 274.292969 209.496094 274.214844 209.632812 274.140625 209.773438 C 266.082031 224.058594 247.925781 229.140625 233.664062 221.097656 C 231.535156 219.898438 229.5625 218.441406 227.796875 216.761719 C 227.34375 216.332031 226.910156 215.894531 226.503906 215.453125 C 223.132812 211.828125 220.707031 207.363281 219.484375 202.539062 L 219.335938 201.929688 L 219.324219 201.886719 C 218.359375 197.667969 218.324219 193.210938 219.230469 188.992188 C 219.269531 188.808594 219.316406 188.609375 219.359375 188.414062 L 219.371094 188.375 C 220.011719 185.660156 221.039062 183.046875 222.417969 180.601562 C 222.867188 179.804688 223.359375 179.015625 223.886719 178.257812 L 223.902344 178.234375 C 224.082031 177.972656 224.269531 177.71875 224.449219 177.472656 C 226.644531 174.515625 229.328125 172.023438 232.433594 170.0625 C 232.960938 169.726562 233.503906 169.40625 234.050781 169.105469 C 238.398438 166.730469 243.308594 165.464844 248.25 165.449219 C 253.363281 165.433594 258.425781 166.757812 262.890625 169.277344 " fill-opacity="1" fill-rule="nonzero"/></g></g></g><g clip-path="url(#id15)"><g clip-path="url(#id16)"><g clip-path="url(#id17)"><path fill="#ffffff" d="M 261.328125 172.046875 C 262.242188 172.5625 263.136719 173.136719 263.988281 173.761719 C 264.371094 174.042969 264.757812 174.339844 265.136719 174.652344 C 267.457031 176.554688 269.421875 178.820312 270.972656 181.390625 L 270.980469 181.40625 C 271.128906 181.648438 271.257812 181.871094 271.382812 182.09375 C 272.589844 184.238281 273.492188 186.53125 274.070312 188.917969 C 274.121094 189.132812 274.167969 189.34375 274.214844 189.558594 C 274.695312 191.789062 274.886719 194.074219 274.785156 196.355469 C 274.773438 196.578125 274.761719 196.808594 274.742188 197.0625 C 274.503906 200.386719 273.648438 203.601562 272.203125 206.621094 C 272.011719 207.023438 271.796875 207.441406 271.574219 207.851562 C 271.511719 207.964844 271.445312 208.089844 271.375 208.214844 C 264.179688 220.972656 247.960938 225.511719 235.226562 218.328125 C 233.324219 217.257812 231.558594 215.953125 229.984375 214.457031 C 229.582031 214.074219 229.195312 213.683594 228.828125 213.289062 C 225.820312 210.050781 223.652344 206.0625 222.5625 201.753906 L 222.429688 201.214844 L 222.421875 201.171875 C 221.554688 197.402344 221.527344 193.421875 222.335938 189.65625 C 222.375 189.480469 222.414062 189.304688 222.453125 189.128906 L 222.460938 189.101562 C 223.035156 186.679688 223.949219 184.347656 225.183594 182.160156 C 225.582031 181.449219 226.027344 180.742188 226.496094 180.0625 L 226.507812 180.046875 C 226.671875 179.8125 226.835938 179.582031 227 179.359375 C 228.957031 176.722656 231.351562 174.5 234.125 172.746094 C 234.597656 172.449219 235.082031 172.164062 235.570312 171.894531 C 239.453125 169.769531 243.839844 168.640625 248.253906 168.628906 C 252.820312 168.613281 257.339844 169.796875 261.328125 172.046875 " fill-opacity="1" fill-rule="nonzero"/></g></g></g><g clip-path="url(#id18)"><g clip-path="url(#id19)"><g clip-path="url(#id20)"><path fill="#f44f2f" d="M 232.230469 186.136719 C 232.515625 185.628906 232.824219 185.140625 233.148438 184.671875 C 233.261719 184.507812 233.378906 184.34375 233.496094 184.183594 C 234.878906 182.324219 236.5625 180.785156 238.441406 179.597656 C 238.769531 179.386719 239.105469 179.191406 239.449219 179.003906 C 244.847656 176.050781 251.597656 175.867188 257.347656 179.109375 C 257.996094 179.476562 258.613281 179.875 259.203125 180.304688 C 259.472656 180.503906 259.738281 180.710938 259.996094 180.921875 C 261.628906 182.261719 262.988281 183.851562 264.046875 185.597656 C 264.144531 185.757812 264.238281 185.921875 264.332031 186.085938 C 265.171875 187.578125 265.800781 189.175781 266.199219 190.832031 C 266.234375 190.980469 266.265625 191.125 266.296875 191.269531 C 266.632812 192.820312 266.769531 194.414062 266.695312 196.011719 C 266.6875 196.171875 266.679688 196.328125 266.667969 196.488281 C 266.507812 198.738281 265.929688 200.992188 264.902344 203.128906 C 264.769531 203.414062 264.625 203.695312 264.46875 203.976562 C 264.421875 204.0625 264.375 204.152344 264.328125 204.238281 C 259.316406 213.121094 248.070312 216.265625 239.210938 211.265625 C 237.855469 210.503906 236.636719 209.59375 235.5625 208.574219 C 235.285156 208.3125 235.019531 208.042969 234.765625 207.765625 C 232.636719 205.476562 231.160156 202.707031 230.410156 199.75 L 230.3125 199.347656 C 229.714844 196.746094 229.675781 194.007812 230.253906 191.335938 C 230.28125 191.207031 230.308594 191.082031 230.339844 190.957031 C 230.730469 189.308594 231.355469 187.6875 232.230469 186.136719 " fill-opacity="1" fill-rule="nonzero"/></g></g></g><g clip-path="url(#id21)"><g clip-path="url(#id22)"><g clip-path="url(#id23)"><path fill="#fff8d7" d="M 234.765625 207.765625 C 235.179688 207.84375 235.59375 207.917969 236.007812 207.992188 C 241.4375 208.996094 246.070312 209.15625 250.160156 208.488281 C 255.175781 207.734375 259.820312 205.648438 263.304688 203.914062 C 263.835938 203.65625 264.375 203.390625 264.902344 203.128906 C 264.769531 203.414062 264.625 203.695312 264.46875 203.976562 C 263.988281 204.246094 263.503906 204.519531 263.019531 204.78125 C 258.136719 207.511719 254.078125 209.046875 250.238281 209.625 C 246.234375 210.28125 241.726562 210 236.4375 208.773438 C 236.144531 208.707031 235.847656 208.640625 235.5625 208.574219 C 235.285156 208.3125 235.019531 208.042969 234.765625 207.765625 " fill-opacity="1" fill-rule="nonzero"/></g></g></g><g clip-path="url(#id24)"><g clip-path="url(#id25)"><g clip-path="url(#id26)"><path fill="#fff8d7" d="M 230.3125 199.347656 C 230.839844 199.472656 231.375 199.597656 231.914062 199.726562 C 233.140625 200.019531 234.410156 200.324219 235.667969 200.589844 C 241.0625 201.789062 245.695312 202.121094 249.828125 201.609375 C 254.894531 201.042969 259.652344 199.136719 263.234375 197.542969 C 263.90625 197.25 264.59375 196.945312 265.257812 196.648438 C 265.742188 196.433594 266.21875 196.21875 266.695312 196.011719 C 266.6875 196.171875 266.679688 196.328125 266.667969 196.488281 C 266.28125 196.6875 265.898438 196.882812 265.515625 197.078125 C 264.660156 197.515625 263.777344 197.96875 262.90625 198.394531 C 257.875 200.929688 253.730469 202.3125 249.851562 202.742188 C 245.984375 203.226562 241.714844 202.84375 236.78125 201.574219 C 236.539062 201.511719 236.300781 201.449219 236.058594 201.382812 C 234.5625 200.996094 233.050781 200.539062 231.585938 200.101562 C 231.199219 199.984375 230.804688 199.867188 230.410156 199.75 L 230.3125 199.347656 " fill-opacity="1" fill-rule="nonzero"/></g></g></g><g clip-path="url(#id27)"><g clip-path="url(#id28)"><g clip-path="url(#id29)"><path fill="#fff8d7" d="M 230.339844 190.957031 C 230.734375 191.085938 231.136719 191.21875 231.542969 191.351562 C 232.742188 191.746094 233.980469 192.152344 235.210938 192.519531 C 236.210938 192.832031 237.203125 193.113281 238.148438 193.355469 C 242.21875 194.40625 245.867188 194.851562 249.304688 194.71875 C 254.449219 194.589844 259.4375 193.109375 263.207031 191.832031 C 263.917969 191.601562 264.640625 191.359375 265.339844 191.125 C 265.628906 191.023438 265.914062 190.929688 266.199219 190.832031 C 266.234375 190.980469 266.265625 191.125 266.296875 191.269531 C 266.046875 191.367188 265.796875 191.46875 265.550781 191.566406 C 264.644531 191.925781 263.707031 192.300781 262.78125 192.648438 C 257.449219 194.730469 253.136719 195.742188 249.195312 195.84375 C 246.320312 195.953125 243.332031 195.597656 240.050781 194.75 C 238.609375 194.382812 237.082031 193.902344 235.515625 193.335938 C 234.058594 192.828125 232.59375 192.253906 231.175781 191.695312 C 230.867188 191.574219 230.5625 191.457031 230.253906 191.335938 C 230.28125 191.207031 230.308594 191.082031 230.339844 190.957031 " fill-opacity="1" fill-rule="nonzero"/></g></g></g><g clip-path="url(#id30)"><g clip-path="url(#id31)"><g clip-path="url(#id32)"><path fill="#fff8d7" d="M 233.148438 184.671875 C 233.261719 184.507812 233.378906 184.34375 233.496094 184.183594 C 233.96875 184.367188 234.441406 184.546875 234.910156 184.71875 C 236.992188 185.515625 238.925781 186.136719 240.808594 186.621094 C 243.648438 187.351562 246.28125 187.742188 248.855469 187.8125 C 254.027344 188.015625 259.164062 186.871094 263.054688 185.851562 C 263.382812 185.769531 263.714844 185.683594 264.046875 185.597656 C 264.144531 185.757812 264.238281 185.921875 264.332031 186.085938 C 263.742188 186.269531 263.148438 186.453125 262.558594 186.628906 C 257.027344 188.347656 252.613281 189.074219 248.648438 188.917969 C 246.503906 188.859375 244.253906 188.53125 241.945312 187.9375 C 239.777344 187.378906 237.554688 186.597656 235.144531 185.546875 C 234.480469 185.265625 233.8125 184.972656 233.148438 184.671875 " fill-opacity="1" fill-rule="nonzero"/></g></g></g><g clip-path="url(#id33)"><g clip-path="url(#id34)"><g clip-path="url(#id35)"><path fill="#fff8d7" d="M 238.441406 179.597656 C 238.769531 179.386719 239.105469 179.191406 239.449219 179.003906 C 240.441406 179.335938 241.414062 179.621094 242.371094 179.867188 C 244.460938 180.40625 246.515625 180.753906 248.484375 180.898438 C 252.191406 181.214844 255.921875 180.847656 259.203125 180.304688 C 259.472656 180.503906 259.738281 180.710938 259.996094 180.921875 C 255.402344 181.941406 251.613281 182.28125 248.207031 181.988281 C 246.535156 181.863281 244.8125 181.574219 243.074219 181.128906 C 241.566406 180.738281 240.03125 180.234375 238.441406 179.597656 " fill-opacity="1" fill-rule="nonzero"/></g></g></g><g fill="#746c64" fill-opacity="1"><g transform="translate(36.600489, 298.333461)"><g><path d="M 0.6875 -14.15625 C 0.6875 -15.664062 1.046875 -16.820312 1.765625 -17.625 C 2.484375 -18.4375 3.5625 -18.84375 5 -18.84375 C 6.4375 -18.84375 7.515625 -18.4375 8.234375 -17.625 C 8.953125 -16.820312 9.3125 -15.664062 9.3125 -14.15625 L 9.3125 -13.578125 L 6.546875 -13.578125 L 6.546875 -14.34375 C 6.546875 -15.019531 6.414062 -15.492188 6.15625 -15.765625 C 5.90625 -16.035156 5.546875 -16.171875 5.078125 -16.171875 C 4.617188 -16.171875 4.257812 -16.035156 4 -15.765625 C 3.75 -15.492188 3.625 -15.019531 3.625 -14.34375 C 3.625 -13.707031 3.765625 -13.144531 4.046875 -12.65625 C 4.328125 -12.164062 4.679688 -11.703125 5.109375 -11.265625 C 5.535156 -10.828125 5.992188 -10.390625 6.484375 -9.953125 C 6.972656 -9.523438 7.425781 -9.050781 7.84375 -8.53125 C 8.269531 -8.019531 8.625 -7.4375 8.90625 -6.78125 C 9.195312 -6.125 9.34375 -5.351562 9.34375 -4.46875 C 9.34375 -2.957031 8.972656 -1.796875 8.234375 -0.984375 C 7.492188 -0.179688 6.40625 0.21875 4.96875 0.21875 C 3.539062 0.21875 2.457031 -0.179688 1.71875 -0.984375 C 0.976562 -1.796875 0.609375 -2.957031 0.609375 -4.46875 L 0.609375 -5.609375 L 3.375 -5.609375 L 3.375 -4.28125 C 3.375 -3.601562 3.507812 -3.128906 3.78125 -2.859375 C 4.0625 -2.597656 4.429688 -2.46875 4.890625 -2.46875 C 5.359375 -2.46875 5.726562 -2.597656 6 -2.859375 C 6.269531 -3.128906 6.40625 -3.601562 6.40625 -4.28125 C 6.40625 -4.914062 6.265625 -5.476562 5.984375 -5.96875 C 5.703125 -6.457031 5.347656 -6.921875 4.921875 -7.359375 C 4.492188 -7.796875 4.035156 -8.226562 3.546875 -8.65625 C 3.066406 -9.09375 2.613281 -9.566406 2.1875 -10.078125 C 1.757812 -10.597656 1.398438 -11.1875 1.109375 -11.84375 C 0.828125 -12.5 0.6875 -13.269531 0.6875 -14.15625 Z M 0.6875 -14.15625 "/></g></g></g><g fill="#746c64" fill-opacity="1"><g transform="translate(54.032874, 298.333461)"><g><path d="M 3.859375 -18.625 L 3.859375 -4.25 C 3.859375 -3.582031 3.992188 -3.113281 4.265625 -2.84375 C 4.546875 -2.582031 4.914062 -2.453125 5.375 -2.453125 C 5.832031 -2.453125 6.195312 -2.582031 6.46875 -2.84375 C 6.75 -3.113281 6.890625 -3.582031 6.890625 -4.25 L 6.890625 -18.625 L 9.65625 -18.625 L 9.65625 -4.4375 C 9.65625 -2.9375 9.285156 -1.78125 8.546875 -0.96875 C 7.816406 -0.164062 6.734375 0.234375 5.296875 0.234375 C 3.859375 0.234375 2.769531 -0.164062 2.03125 -0.96875 C 1.300781 -1.78125 0.9375 -2.9375 0.9375 -4.4375 L 0.9375 -18.625 Z M 3.859375 -18.625 "/></g></g></g><g fill="#746c64" fill-opacity="1"><g transform="translate(72.103848, 298.333461)"><g><path d="M 0.6875 -14.15625 C 0.6875 -15.664062 1.046875 -16.820312 1.765625 -17.625 C 2.484375 -18.4375 3.5625 -18.84375 5 -18.84375 C 6.4375 -18.84375 7.515625 -18.4375 8.234375 -17.625 C 8.953125 -16.820312 9.3125 -15.664062 9.3125 -14.15625 L 9.3125 -13.578125 L 6.546875 -13.578125 L 6.546875 -14.34375 C 6.546875 -15.019531 6.414062 -15.492188 6.15625 -15.765625 C 5.90625 -16.035156 5.546875 -16.171875 5.078125 -16.171875 C 4.617188 -16.171875 4.257812 -16.035156 4 -15.765625 C 3.75 -15.492188 3.625 -15.019531 3.625 -14.34375 C 3.625 -13.707031 3.765625 -13.144531 4.046875 -12.65625 C 4.328125 -12.164062 4.679688 -11.703125 5.109375 -11.265625 C 5.535156 -10.828125 5.992188 -10.390625 6.484375 -9.953125 C 6.972656 -9.523438 7.425781 -9.050781 7.84375 -8.53125 C 8.269531 -8.019531 8.625 -7.4375 8.90625 -6.78125 C 9.195312 -6.125 9.34375 -5.351562 9.34375 -4.46875 C 9.34375 -2.957031 8.972656 -1.796875 8.234375 -0.984375 C 7.492188 -0.179688 6.40625 0.21875 4.96875 0.21875 C 3.539062 0.21875 2.457031 -0.179688 1.71875 -0.984375 C 0.976562 -1.796875 0.609375 -2.957031 0.609375 -4.46875 L 0.609375 -5.609375 L 3.375 -5.609375 L 3.375 -4.28125 C 3.375 -3.601562 3.507812 -3.128906 3.78125 -2.859375 C 4.0625 -2.597656 4.429688 -2.46875 4.890625 -2.46875 C 5.359375 -2.46875 5.726562 -2.597656 6 -2.859375 C 6.269531 -3.128906 6.40625 -3.601562 6.40625 -4.28125 C 6.40625 -4.914062 6.265625 -5.476562 5.984375 -5.96875 C 5.703125 -6.457031 5.347656 -6.921875 4.921875 -7.359375 C 4.492188 -7.796875 4.035156 -8.226562 3.546875 -8.65625 C 3.066406 -9.09375 2.613281 -9.566406 2.1875 -10.078125 C 1.757812 -10.597656 1.398438 -11.1875 1.109375 -11.84375 C 0.828125 -12.5 0.6875 -13.269531 0.6875 -14.15625 Z M 0.6875 -14.15625 "/></g></g></g><g fill="#746c64" fill-opacity="1"><g transform="translate(89.53623, 298.333461)"><g><path d="M 3.984375 0 L 1.0625 0 L 1.0625 -18.625 L 3.984375 -18.625 L 3.984375 -10.640625 L 7.3125 -10.640625 L 7.3125 -18.625 L 10.296875 -18.625 L 10.296875 0 L 7.3125 0 L 7.3125 -7.984375 L 3.984375 -7.984375 Z M 3.984375 0 "/></g></g></g><g fill="#746c64" fill-opacity="1"><g transform="translate(108.37883, 298.333461)"><g><path d="M 1.0625 -18.625 L 3.984375 -18.625 L 3.984375 0 L 1.0625 0 Z M 1.0625 -18.625 "/></g></g></g><g fill="#746c64" fill-opacity="1"><g transform="translate(120.915416, 298.333461)"><g/></g></g><g fill="#746c64" fill-opacity="1"><g transform="translate(132.520735, 298.333461)"><g><path d="M 1.09375 -5.9375 C 1.09375 -6.894531 1.242188 -7.703125 1.546875 -8.359375 C 1.859375 -9.023438 2.378906 -9.519531 3.109375 -9.84375 C 1.765625 -10.414062 1.09375 -11.691406 1.09375 -13.671875 L 1.09375 -14.015625 C 1.09375 -15.523438 1.453125 -16.671875 2.171875 -17.453125 C 2.890625 -18.234375 3.984375 -18.625 5.453125 -18.625 L 8.8125 -18.625 L 8.8125 -15.96875 L 5.515625 -15.96875 C 5.046875 -15.96875 4.675781 -15.832031 4.40625 -15.5625 C 4.144531 -15.300781 4.015625 -14.832031 4.015625 -14.15625 L 4.015625 -13.015625 C 4.015625 -12.265625 4.171875 -11.75 4.484375 -11.46875 C 4.796875 -11.1875 5.226562 -11.046875 5.78125 -11.046875 L 7.046875 -11.046875 L 7.046875 -13.125 L 9.984375 -13.125 L 9.984375 -11.046875 L 10.75 -11.046875 L 10.75 -8.375 L 9.984375 -8.375 L 9.984375 -2.265625 C 9.984375 -1.796875 10 -1.390625 10.03125 -1.046875 C 10.0625 -0.703125 10.148438 -0.351562 10.296875 0 L 7.3125 0 C 7.25 -0.195312 7.195312 -0.382812 7.15625 -0.5625 C 7.125 -0.75 7.085938 -1.050781 7.046875 -1.46875 C 6.535156 -0.34375 5.632812 0.21875 4.34375 0.21875 C 3.257812 0.21875 2.445312 -0.144531 1.90625 -0.875 C 1.363281 -1.601562 1.09375 -2.660156 1.09375 -4.046875 Z M 4.015625 -4.28125 C 4.015625 -3.601562 4.148438 -3.128906 4.421875 -2.859375 C 4.703125 -2.585938 5.070312 -2.453125 5.53125 -2.453125 C 5.976562 -2.453125 6.332031 -2.570312 6.59375 -2.8125 C 6.863281 -3.0625 7.015625 -3.484375 7.046875 -4.078125 L 7.046875 -8.375 L 5.9375 -8.375 C 5.257812 -8.375 4.769531 -8.195312 4.46875 -7.84375 C 4.164062 -7.488281 4.015625 -6.878906 4.015625 -6.015625 Z M 4.015625 -4.28125 "/></g></g></g><g fill="#746c64" fill-opacity="1"><g transform="translate(151.017434, 298.333461)"><g/></g></g><g fill="#746c64" fill-opacity="1"><g transform="translate(162.622753, 298.333461)"><g><path d="M 5.484375 -18.625 C 7.003906 -18.625 8.101562 -18.269531 8.78125 -17.5625 C 9.46875 -16.851562 9.8125 -15.78125 9.8125 -14.34375 L 9.8125 -13.671875 C 9.8125 -12.710938 9.660156 -11.921875 9.359375 -11.296875 C 9.066406 -10.679688 8.585938 -10.222656 7.921875 -9.921875 C 8.722656 -9.617188 9.285156 -9.125 9.609375 -8.4375 C 9.941406 -7.757812 10.109375 -6.925781 10.109375 -5.9375 L 10.109375 -4.421875 C 10.109375 -2.984375 9.734375 -1.882812 8.984375 -1.125 C 8.242188 -0.375 7.140625 0 5.671875 0 L 1.0625 0 L 1.0625 -18.625 Z M 3.984375 -8.375 L 3.984375 -2.65625 L 5.671875 -2.65625 C 6.160156 -2.65625 6.535156 -2.785156 6.796875 -3.046875 C 7.054688 -3.316406 7.1875 -3.800781 7.1875 -4.5 L 7.1875 -6.125 C 7.1875 -6.988281 7.039062 -7.578125 6.75 -7.890625 C 6.457031 -8.210938 5.972656 -8.375 5.296875 -8.375 Z M 3.984375 -15.96875 L 3.984375 -11.046875 L 5.140625 -11.046875 C 5.679688 -11.046875 6.109375 -11.1875 6.421875 -11.46875 C 6.734375 -11.75 6.890625 -12.265625 6.890625 -13.015625 L 6.890625 -14.046875 C 6.890625 -14.722656 6.769531 -15.210938 6.53125 -15.515625 C 6.289062 -15.816406 5.914062 -15.96875 5.40625 -15.96875 Z M 3.984375 -15.96875 "/></g></g></g><g fill="#746c64" fill-opacity="1"><g transform="translate(180.906586, 298.333461)"><g><path d="M 10.53125 0 L 7.578125 0 L 7.078125 -3.375 L 3.484375 -3.375 L 2.984375 0 L 0.296875 0 L 3.265625 -18.625 L 7.5625 -18.625 Z M 3.859375 -5.90625 L 6.671875 -5.90625 L 5.265625 -15.328125 Z M 3.859375 -5.90625 "/></g></g></g><g fill="#746c64" fill-opacity="1"><g transform="translate(199.217029, 298.333461)"><g><path d="M 7.1875 0 C 7.144531 -0.125 7.109375 -0.238281 7.078125 -0.34375 C 7.046875 -0.445312 7.015625 -0.578125 6.984375 -0.734375 C 6.953125 -0.898438 6.929688 -1.109375 6.921875 -1.359375 C 6.921875 -1.609375 6.921875 -1.914062 6.921875 -2.28125 L 6.921875 -5.21875 C 6.921875 -6.082031 6.769531 -6.691406 6.46875 -7.046875 C 6.164062 -7.398438 5.675781 -7.578125 5 -7.578125 L 3.984375 -7.578125 L 3.984375 0 L 1.0625 0 L 1.0625 -18.625 L 5.484375 -18.625 C 7.003906 -18.625 8.101562 -18.269531 8.78125 -17.5625 C 9.46875 -16.851562 9.8125 -15.78125 9.8125 -14.34375 L 9.8125 -12.875 C 9.8125 -10.957031 9.175781 -9.695312 7.90625 -9.09375 C 8.644531 -8.789062 9.148438 -8.296875 9.421875 -7.609375 C 9.703125 -6.929688 9.84375 -6.109375 9.84375 -5.140625 L 9.84375 -2.265625 C 9.84375 -1.796875 9.859375 -1.390625 9.890625 -1.046875 C 9.929688 -0.703125 10.023438 -0.351562 10.171875 0 Z M 3.984375 -15.96875 L 3.984375 -10.25 L 5.140625 -10.25 C 5.679688 -10.25 6.109375 -10.390625 6.421875 -10.671875 C 6.734375 -10.953125 6.890625 -11.46875 6.890625 -12.21875 L 6.890625 -14.046875 C 6.890625 -14.722656 6.769531 -15.210938 6.53125 -15.515625 C 6.289062 -15.816406 5.914062 -15.96875 5.40625 -15.96875 Z M 3.984375 -15.96875 "/></g></g></g></svg>