<?xml version="1.0" encoding="UTF-8" standalone="no"?>
<!DOCTYPE svg PUBLIC "-//W3C//DTD SVG 1.1//EN" "http://www.w3.org/Graphics/SVG/1.1/DTD/svg11.dtd">
<svg width="100%" height="100%" viewBox="0 0 500 500" version="1.1" xmlns="http://www.w3.org/2000/svg" xmlns:xlink="http://www.w3.org/1999/xlink" xml:space="preserve" xmlns:serif="http://www.serif.com/" style="fill-rule:evenodd;clip-rule:evenodd;stroke-linejoin:round;stroke-miterlimit:2;">
    <g>
        <path d="M330.146,169.115C279.885,169.115 239.146,209.859 239.146,260.115C239.146,310.375 279.885,351.115 330.146,351.115C380.406,351.115 421.146,310.375 421.146,260.115C421.146,209.859 380.406,169.115 330.146,169.115" style="fill:rgb(235,227,212);fill-rule:nonzero;"/>
    </g>
    <g transform="matrix(1,0,0,1,48.8007,212.301)">
        <g>
            <g>
                <path d="M36.458,-37.354C34.448,-39.703 33.214,-40.823 31.203,-42.609L32.432,-44.849C33.214,-46.078 32.323,-47.531 30.865,-47.531L25.5,-47.531C24.714,-48.427 23.151,-49.99 22.813,-50.437C19.458,-54.24 18.12,-58.266 18.677,-62.516C19.458,-68.781 26.281,-70.01 28.964,-64.083L30.083,-61.177C30.531,-59.943 31.427,-59.385 32.766,-59.385C35.453,-59.385 38.359,-59.943 41.38,-60.953C42.5,-61.396 43.057,-62.068 42.833,-63.411C41.714,-72.807 34.333,-83.766 17.896,-79.63C10.734,-77.839 5.255,-71.573 4.583,-62.854C4.026,-55.359 6.484,-48.536 11.854,-42.724L14.984,-39.589L13.198,-36.458C12.526,-35.229 13.422,-33.661 14.875,-33.776L20.911,-33.776L21.922,-32.766C27.734,-26.839 30.083,-25.833 29.974,-19.234C29.974,-16.219 27.734,-13.307 25.052,-12.635C22.255,-11.969 20.021,-13.198 18.229,-16.328C17.672,-17.448 17.448,-18.12 17.109,-19.458C17,-20.245 16.776,-20.687 16.776,-20.911C16.104,-23.26 15.323,-23.932 13.083,-23.823C11.854,-23.823 9.281,-23.484 5.594,-22.927C3.245,-22.589 3.578,-19.797 3.802,-18.12C4.359,-14.427 5.927,-10.51 8.609,-6.375C9.505,-5.031 10.958,-3.802 12.859,-2.573C15.995,-0.672 19.682,0.224 23.932,0C31.536,-0.448 33.661,0.333 38.698,-5.594C41.156,-8.5 42.724,-11.745 43.167,-15.323C44.286,-23.484 42.161,-30.865 36.458,-37.354Z" style="fill:rgb(23,23,27);fill-rule:nonzero;"/>
            </g>
        </g>
    </g>
    <g transform="matrix(1,0,0,1,96.549,212.301)">
        <g>
            <g>
                <path d="M44.849,-6.708C44.734,-7.604 43.057,-17.109 40.036,-35.339L43.839,-37.578C44.401,-37.911 44.734,-38.359 44.734,-39.141C44.734,-39.812 44.401,-40.375 43.839,-40.708L38.583,-43.729C38.474,-44.625 36.792,-54.464 33.661,-73.031C33.328,-74.818 32.88,-76.833 32.099,-77.615C31.651,-77.948 30.755,-78.172 29.635,-78.286L19.458,-78.286C15.88,-78.286 14.984,-77.615 14.313,-73.922C13.307,-67.771 11.63,-57.708 9.172,-43.839L3.802,-40.708C3.13,-40.375 2.797,-39.812 2.797,-39.141C2.797,-38.359 3.13,-37.911 3.802,-37.578L7.719,-35.229C7.719,-35.115 7.604,-34.781 7.604,-34.448C6.932,-30.531 5.37,-21.026 2.682,-5.818C2.234,-2.573 1.453,-0.224 4.583,-0.109C6.932,0 9.844,0 13.307,-0.109C14.875,-0.109 15.771,-0.896 16.104,-2.573C17,-7.719 17.557,-10.734 17.672,-11.63C18.344,-17.333 19.234,-17.557 25.052,-17.557C25.052,-17.557 25.385,-17.557 25.948,-17.448C29.859,-17.333 30.083,-11.969 30.198,-10.849C30.422,-9.953 30.531,-8.609 30.755,-6.932C31.203,-3.354 31.313,-1.677 32.323,-0.781C32.766,-0.333 33.438,-0.109 34.557,0C35.453,0 43.391,0.333 44.401,-0.672C45.292,-1.453 45.406,-3.469 44.849,-6.708ZM27.286,-31.312C27.063,-29.859 20.802,-29.75 20.802,-31.427C20.802,-31.76 20.802,-32.323 20.911,-32.88C21.25,-37.578 21.922,-41.042 22.703,-43.167C23.151,-43.953 24.38,-44.401 25.052,-43.167C25.385,-42.5 25.609,-41.937 25.724,-41.49C25.724,-41.156 26.953,-35.229 27.177,-33.214C27.286,-32.208 27.286,-31.536 27.286,-31.312Z" style="fill:rgb(23,23,27);fill-rule:nonzero;"/>
            </g>
        </g>
    </g>
    <g transform="matrix(1,0,0,1,143.962,212.301)">
        <g>
            <g>
                <path d="M52.229,-40.932L47.865,-43.505L47.865,-72.917C47.865,-75.49 48.089,-78.286 45.74,-78.396C44.063,-78.62 42.276,-78.62 40.375,-78.62C34.891,-78.62 34.672,-78.396 34.672,-72.917C34.672,-73.365 34.672,-65.312 34.557,-48.651C34.557,-44.958 34.672,-44.625 34,-42.5C33.776,-41.156 32.099,-40.932 31.536,-42.276C31.313,-42.724 31.089,-43.281 30.865,-43.953C29.75,-47.979 25.609,-61.734 23.823,-67.661C23.599,-68.667 23.151,-70.12 22.589,-71.911C21.922,-73.922 21.474,-75.38 21.25,-76.161C20.802,-77.724 19.797,-78.51 18.453,-78.51L7.828,-78.51C5.255,-78.396 5.479,-75.714 5.479,-72.245L5.479,-43.505L1.005,-40.932C0.448,-40.484 0.109,-40.036 0.109,-39.255C0.109,-38.583 0.448,-38.135 1.005,-37.687L5.479,-35.115L5.479,-6.823C5.479,-3.245 5.031,-0.448 8.5,0L12.411,0C18.677,0 18.786,0 18.786,-6.042L18.786,-30.307C18.786,-32.656 18.901,-34.224 19.234,-35.115C19.797,-36.458 21.25,-36.792 21.922,-35.453L23.26,-31.76C23.036,-32.323 25.833,-23.823 31.536,-6.042L32.099,-4.474C32.432,-3.693 32.547,-3.13 32.656,-2.682C33.776,0.781 38.917,0 41.604,0C47.531,0 47.865,-0.224 47.865,-6.151L47.865,-35.115L52.229,-37.687C52.901,-38.135 53.234,-38.583 53.234,-39.255C53.234,-40.036 52.901,-40.484 52.229,-40.932Z" style="fill:rgb(23,23,27);fill-rule:nonzero;"/>
            </g>
        </g>
    </g>
    <g transform="matrix(1,0,0,1,201.327,212.301)">
        <g>
            <g>
                <path d="M36.458,-37.354C34.448,-39.703 33.214,-40.823 31.203,-42.609L32.432,-44.849C33.214,-46.078 32.323,-47.531 30.865,-47.531L25.5,-47.531C24.714,-48.427 23.151,-49.99 22.813,-50.437C19.458,-54.24 18.12,-58.266 18.677,-62.516C19.458,-68.781 26.281,-70.01 28.964,-64.083L30.083,-61.177C30.531,-59.943 31.427,-59.385 32.766,-59.385C35.453,-59.385 38.359,-59.943 41.38,-60.953C42.5,-61.396 43.057,-62.068 42.833,-63.411C41.714,-72.807 34.333,-83.766 17.896,-79.63C10.734,-77.839 5.255,-71.573 4.583,-62.854C4.026,-55.359 6.484,-48.536 11.854,-42.724L14.984,-39.589L13.198,-36.458C12.526,-35.229 13.422,-33.661 14.875,-33.776L20.911,-33.776L21.922,-32.766C27.734,-26.839 30.083,-25.833 29.974,-19.234C29.974,-16.219 27.734,-13.307 25.052,-12.635C22.255,-11.969 20.021,-13.198 18.229,-16.328C17.672,-17.448 17.448,-18.12 17.109,-19.458C17,-20.245 16.776,-20.687 16.776,-20.911C16.104,-23.26 15.323,-23.932 13.083,-23.823C11.854,-23.823 9.281,-23.484 5.594,-22.927C3.245,-22.589 3.578,-19.797 3.802,-18.12C4.359,-14.427 5.927,-10.51 8.609,-6.375C9.505,-5.031 10.958,-3.802 12.859,-2.573C15.995,-0.672 19.682,0.224 23.932,0C31.536,-0.448 33.661,0.333 38.698,-5.594C41.156,-8.5 42.724,-11.745 43.167,-15.323C44.286,-23.484 42.161,-30.865 36.458,-37.354Z" style="fill:rgb(23,23,27);fill-rule:nonzero;"/>
            </g>
        </g>
    </g>
    <g transform="matrix(1,0,0,1,48.8007,301.368)">
        <g>
            <g>
                <path d="M36.458,-37.354C34.448,-39.703 33.214,-40.823 31.203,-42.609L32.432,-44.849C33.214,-46.078 32.323,-47.531 30.865,-47.531L25.5,-47.531C24.714,-48.427 23.151,-49.99 22.813,-50.437C19.458,-54.24 18.12,-58.266 18.677,-62.516C19.458,-68.781 26.281,-70.01 28.964,-64.083L30.083,-61.177C30.531,-59.943 31.427,-59.385 32.766,-59.385C35.453,-59.385 38.359,-59.943 41.38,-60.953C42.5,-61.396 43.057,-62.068 42.833,-63.411C41.714,-72.807 34.333,-83.766 17.896,-79.63C10.734,-77.839 5.255,-71.573 4.583,-62.854C4.026,-55.359 6.484,-48.536 11.854,-42.724L14.984,-39.589L13.198,-36.458C12.526,-35.229 13.422,-33.661 14.875,-33.776L20.911,-33.776L21.922,-32.766C27.734,-26.839 30.083,-25.833 29.974,-19.234C29.974,-16.219 27.734,-13.307 25.052,-12.635C22.255,-11.969 20.021,-13.198 18.229,-16.328C17.672,-17.448 17.448,-18.12 17.109,-19.458C17,-20.245 16.776,-20.687 16.776,-20.911C16.104,-23.26 15.323,-23.932 13.083,-23.823C11.854,-23.823 9.281,-23.484 5.594,-22.927C3.245,-22.589 3.578,-19.797 3.802,-18.12C4.359,-14.427 5.927,-10.51 8.609,-6.375C9.505,-5.031 10.958,-3.802 12.859,-2.573C15.995,-0.672 19.682,0.224 23.932,0C31.536,-0.448 33.661,0.333 38.698,-5.594C41.156,-8.5 42.724,-11.745 43.167,-15.323C44.286,-23.484 42.161,-30.865 36.458,-37.354Z" style="fill:rgb(244,79,47);fill-rule:nonzero;"/>
            </g>
        </g>
    </g>
    <g transform="matrix(1,0,0,1,96.549,301.368)">
        <g>
            <g>
                <path d="M48.651,-40.599L44.177,-43.167L44.177,-72.135C44.177,-75.156 44.401,-77.948 41.938,-78.172C40.375,-78.286 38.583,-78.286 36.682,-78.286C31.089,-78.286 30.979,-78.172 30.979,-72.693L30.979,-23.26C30.979,-18.12 30.198,-13.198 25.161,-12.302C21.135,-11.745 18.901,-15.88 18.786,-18.786C18.677,-20.021 18.677,-21.474 18.677,-23.151L18.677,-71.24C18.677,-75.38 19.125,-77.948 16.104,-78.172C13.87,-78.396 7.495,-78.51 6.26,-77.391C5.703,-76.833 5.479,-75.156 5.479,-72.469L5.479,-43.167L1.005,-40.599C0.333,-40.26 0,-39.812 0,-39.031C0,-38.359 0.333,-37.802 1.005,-37.464L5.479,-34.891L5.479,-20.464C5.479,-17.896 5.927,-14.651 6.823,-10.849C7.271,-9.281 8.052,-7.828 8.948,-6.484C14.984,1.344 24.156,2.906 33.552,-0.333C34.224,-0.557 34.891,-0.896 35.453,-1.453C41.38,-6.151 44.401,-11.745 44.177,-18.344C44.177,-22.146 44.063,-28.74 44.063,-34.781L48.651,-37.464C49.318,-37.802 49.542,-38.359 49.542,-39.031C49.542,-39.812 49.318,-40.26 48.651,-40.599Z" style="fill:rgb(244,79,47);fill-rule:nonzero;"/>
            </g>
        </g>
    </g>
    <g transform="matrix(1,0,0,1,150.224,301.368)">
        <g>
            <g>
                <path d="M36.458,-37.354C34.448,-39.703 33.214,-40.823 31.203,-42.609L32.432,-44.849C33.214,-46.078 32.323,-47.531 30.865,-47.531L25.5,-47.531C24.714,-48.427 23.151,-49.99 22.813,-50.437C19.458,-54.24 18.12,-58.266 18.677,-62.516C19.458,-68.781 26.281,-70.01 28.964,-64.083L30.083,-61.177C30.531,-59.943 31.427,-59.385 32.766,-59.385C35.453,-59.385 38.359,-59.943 41.38,-60.953C42.5,-61.396 43.057,-62.068 42.833,-63.411C41.714,-72.807 34.333,-83.766 17.896,-79.63C10.734,-77.839 5.255,-71.573 4.583,-62.854C4.026,-55.359 6.484,-48.536 11.854,-42.724L14.984,-39.589L13.198,-36.458C12.526,-35.229 13.422,-33.661 14.875,-33.776L20.911,-33.776L21.922,-32.766C27.734,-26.839 30.083,-25.833 29.974,-19.234C29.974,-16.219 27.734,-13.307 25.052,-12.635C22.255,-11.969 20.021,-13.198 18.229,-16.328C17.672,-17.448 17.448,-18.12 17.109,-19.458C17,-20.245 16.776,-20.687 16.776,-20.911C16.104,-23.26 15.323,-23.932 13.083,-23.823C11.854,-23.823 9.281,-23.484 5.594,-22.927C3.245,-22.589 3.578,-19.797 3.802,-18.12C4.359,-14.427 5.927,-10.51 8.609,-6.375C9.505,-5.031 10.958,-3.802 12.859,-2.573C15.995,-0.672 19.682,0.224 23.932,0C31.536,-0.448 33.661,0.333 38.698,-5.594C41.156,-8.5 42.724,-11.745 43.167,-15.323C44.286,-23.484 42.161,-30.865 36.458,-37.354Z" style="fill:rgb(244,79,47);fill-rule:nonzero;"/>
            </g>
        </g>
    </g>
    <g transform="matrix(1,0,0,1,197.972,301.368)">
        <g>
            <g>
                <path d="M48.76,-40.708L44.286,-43.281L44.286,-72.917C44.286,-75.823 44.734,-78.396 41.714,-78.62C39.589,-78.844 32.88,-78.958 31.875,-77.948C31.313,-77.391 31.089,-75.823 31.089,-73.031C30.979,-70.792 30.979,-67.437 30.979,-63.078L30.979,-53.12C30.979,-49.88 31.203,-46.411 27.849,-46.078C24.938,-45.63 21.026,-45.63 19.682,-46.859C18.453,-48.089 18.677,-50.328 18.677,-53.906L18.677,-72.469C18.677,-75.823 19.125,-78.396 16.104,-78.62C13.979,-78.844 7.271,-78.958 6.151,-77.948C5.594,-77.391 5.37,-75.823 5.37,-73.031L5.37,-43.281L0.896,-40.708C0.333,-40.375 0,-39.812 0,-39.141C0,-38.359 0.333,-37.911 0.896,-37.578L5.37,-35.005L5.37,-7.156C5.37,-3.13 5.37,-1.677 6.151,-0.781C7.047,0.109 8.948,0 12.75,0C18.229,0 18.677,-0.448 18.677,-5.703L18.677,-26.057C18.677,-29.187 18.344,-32.099 21.583,-32.323C24.828,-32.547 29.635,-32.99 30.531,-29.859C30.865,-28.74 30.979,-27.177 30.979,-25.276L31.089,-5.818C31.089,-2.797 30.755,-0.333 33.552,-0.109C34.557,0 36.01,0 37.911,0C43.953,0 44.286,-0.224 44.286,-6.151L44.286,-35.005L48.76,-37.578C49.318,-37.911 49.656,-38.359 49.656,-39.141C49.656,-39.812 49.318,-40.375 48.76,-40.708Z" style="fill:rgb(244,79,47);fill-rule:nonzero;"/>
            </g>
        </g>
    </g>
    <g transform="matrix(1,0,0,1,252.766,301.368)">
        <g>
            <g>
                <path d="M23.151,-40.823L18.677,-43.391L18.677,-71.911C18.677,-75.714 19.125,-78.172 16.104,-78.51C13.979,-78.62 7.271,-78.844 6.151,-77.724C5.703,-77.281 5.479,-75.599 5.479,-72.917L5.479,-43.391L1.005,-40.823C0.333,-40.484 0,-39.927 0,-39.255C0,-38.474 0.333,-38.026 1.005,-37.687L5.479,-35.115L5.479,-6.26C5.479,-3.13 5.146,-0.333 8.167,-0.109C9.281,0 10.849,0 12.974,0C18.453,0 18.677,-0.109 18.677,-5.703L18.677,-35.115L23.151,-37.687C23.708,-38.026 24.047,-38.474 24.047,-39.255C24.047,-39.927 23.708,-40.484 23.151,-40.823Z" style="fill:rgb(244,79,47);fill-rule:nonzero;"/>
            </g>
        </g>
    </g>
    <g>
        <g>
            <clipPath id="_clip1">
                <path d="M352.052,317.641L271.052,271.953L374.214,89.042L455.219,134.729L352.052,317.641Z"/>
            </clipPath>
            <g clip-path="url(#_clip1)">
                <g>
                    <clipPath id="_clip2">
                        <path d="M352.052,317.641L271.052,271.953L374.214,89.042L455.219,134.729L352.052,317.641Z"/>
                    </clipPath>
                    <g clip-path="url(#_clip2)">
                        <g>
                            <clipPath id="_clip3">
                                <path d="M314.797,264.208L284.844,247.313L374.182,88.906L404.135,105.797L314.797,264.208Z"/>
                            </clipPath>
                            <g clip-path="url(#_clip3)">
                                <g>
                                    <clipPath id="_clip4">
                                        <path d="M314.797,264.208L284.932,247.365L374.224,89.047L404.083,105.885L314.797,264.208Z"/>
                                    </clipPath>
                                    <g clip-path="url(#_clip4)">
                                        <path d="M286.807,248.214L286.87,248.255C286.938,248.307 287.01,248.354 287.083,248.396C288.198,249.026 289.76,248.526 290.802,247.203L346.24,177.177L349.219,173.411L403.995,105.833L394.896,100.703L345.547,167.12L286.823,244.104C285.698,245.578 285.693,247.344 286.807,248.214" style="fill:rgb(116,108,100);fill-rule:nonzero;"/>
                                    </g>
                                </g>
                            </g>
                        </g>
                    </g>
                </g>
            </g>
        </g>
    </g>
    <g>
        <g>
            <clipPath id="_clip5">
                <path d="M352.052,317.641L271.052,271.953L374.214,89.042L455.219,134.729L352.052,317.641Z"/>
            </clipPath>
            <g clip-path="url(#_clip5)">
                <g>
                    <clipPath id="_clip6">
                        <path d="M352.052,317.641L271.052,271.953L374.214,89.042L455.219,134.729L352.052,317.641Z"/>
                    </clipPath>
                    <g clip-path="url(#_clip6)">
                        <g>
                            <clipPath id="_clip7">
                                <path d="M365.917,293.042L335.964,276.146L425.307,117.74L455.255,134.63L365.917,293.042Z"/>
                            </clipPath>
                            <g clip-path="url(#_clip7)">
                                <g>
                                    <clipPath id="_clip8">
                                        <path d="M365.917,293.042L335.964,276.146L425.255,117.828L455.208,134.719L365.917,293.042Z"/>
                                    </clipPath>
                                    <g clip-path="url(#_clip8)">
                                        <path d="M364.219,291.875L364.188,291.859L364.151,291.844C364.073,291.813 363.995,291.776 363.922,291.734C362.807,291.104 362.427,289.505 363.016,287.932L394.266,204.266L395.948,199.766L425.438,117.932L434.536,123.063L403.229,199.651L367.729,289.734C367.047,291.458 365.542,292.38 364.219,291.875" style="fill:rgb(116,108,100);fill-rule:nonzero;"/>
                                    </g>
                                </g>
                            </g>
                        </g>
                    </g>
                </g>
            </g>
        </g>
    </g>
    <g>
        <g>
            <clipPath id="_clip9">
                <path d="M352.052,317.641L271.052,271.953L374.214,89.042L455.219,134.729L352.052,317.641Z"/>
            </clipPath>
            <g clip-path="url(#_clip9)">
                <g>
                    <clipPath id="_clip10">
                        <path d="M352.052,317.641L271.052,271.953L374.214,89.042L455.219,134.729L352.052,317.641Z"/>
                    </clipPath>
                    <g clip-path="url(#_clip10)">
                        <path d="M350.521,225.703C351.885,226.469 353.219,227.333 354.484,228.255C355.063,228.677 355.641,229.13 356.208,229.599C359.667,232.432 362.599,235.818 364.922,239.656L364.938,239.682C365.151,240.042 365.349,240.375 365.531,240.703C367.333,243.906 368.677,247.328 369.536,250.885C369.62,251.214 369.693,251.536 369.76,251.854C370.474,255.172 370.76,258.589 370.609,261.99C370.594,262.323 370.573,262.677 370.542,263.057C370.188,268.016 368.911,272.818 366.755,277.323C366.469,277.927 366.146,278.547 365.813,279.167C365.724,279.328 365.62,279.51 365.521,279.698C354.776,298.745 330.568,305.521 311.552,294.797C308.714,293.198 306.083,291.255 303.729,289.016C303.125,288.443 302.547,287.859 302.005,287.271C297.51,282.438 294.276,276.484 292.646,270.052L292.448,269.24L292.432,269.182C291.146,263.557 291.099,257.615 292.307,251.99C292.359,251.745 292.422,251.479 292.479,251.219L292.495,251.167C293.349,247.547 294.719,244.063 296.557,240.802C297.156,239.74 297.813,238.688 298.516,237.677L298.536,237.646C298.776,237.297 299.026,236.958 299.266,236.63C302.193,232.688 305.771,229.365 309.911,226.75C310.615,226.302 311.339,225.875 312.068,225.474C317.865,222.307 324.411,220.62 331,220.599C337.818,220.578 344.568,222.344 350.521,225.703" style="fill:rgb(43,43,43);fill-rule:nonzero;"/>
                    </g>
                </g>
            </g>
        </g>
    </g>
    <g>
        <g>
            <clipPath id="_clip11">
                <path d="M352.052,317.641L271.052,271.953L374.214,89.042L455.219,134.729L352.052,317.641Z"/>
            </clipPath>
            <g clip-path="url(#_clip11)">
                <g>
                    <clipPath id="_clip12">
                        <path d="M352.052,317.641L271.052,271.953L374.214,89.042L455.219,134.729L352.052,317.641Z"/>
                    </clipPath>
                    <g clip-path="url(#_clip12)">
                        <path d="M348.438,229.396C349.656,230.083 350.849,230.849 351.984,231.682C352.495,232.057 353.01,232.453 353.516,232.87C356.609,235.406 359.229,238.427 361.297,241.854L361.307,241.875C361.505,242.198 361.677,242.495 361.844,242.792C363.453,245.651 364.656,248.708 365.427,251.891C365.495,252.177 365.557,252.458 365.62,252.745C366.26,255.719 366.516,258.766 366.38,261.807C366.365,262.104 366.349,262.411 366.323,262.75C366.005,267.182 364.865,271.469 362.938,275.495C362.682,276.031 362.396,276.589 362.099,277.135C362.016,277.286 361.927,277.453 361.833,277.62C352.24,294.63 330.615,300.682 313.635,291.104C311.099,289.677 308.745,287.938 306.646,285.943C306.109,285.432 305.594,284.911 305.104,284.385C301.094,280.068 298.203,274.75 296.75,269.005L296.573,268.286L296.563,268.229C295.406,263.203 295.37,257.896 296.448,252.875C296.5,252.641 296.552,252.406 296.604,252.172L296.615,252.135C297.38,248.906 298.599,245.797 300.245,242.88C300.776,241.932 301.37,240.99 301.995,240.083L302.01,240.063C302.229,239.75 302.448,239.443 302.667,239.146C305.276,235.63 308.469,232.667 312.167,230.328C312.797,229.932 313.443,229.552 314.094,229.193C319.271,226.359 325.12,224.854 331.005,224.839C337.094,224.818 343.12,226.396 348.438,229.396" style="fill:white;fill-rule:nonzero;"/>
                    </g>
                </g>
            </g>
        </g>
    </g>
    <g>
        <g>
            <clipPath id="_clip13">
                <path d="M352.052,317.641L271.052,271.953L374.214,89.042L455.219,134.729L352.052,317.641Z"/>
            </clipPath>
            <g clip-path="url(#_clip13)">
                <g>
                    <clipPath id="_clip14">
                        <path d="M352.052,317.641L271.052,271.953L374.214,89.042L455.219,134.729L352.052,317.641Z"/>
                    </clipPath>
                    <g clip-path="url(#_clip14)">
                        <path d="M309.641,248.182C310.021,247.505 310.432,246.854 310.865,246.229C311.016,246.01 311.172,245.792 311.328,245.578C313.172,243.099 315.417,241.047 317.922,239.464C318.359,239.182 318.807,238.922 319.266,238.672C326.464,234.734 335.464,234.49 343.13,238.813C343.995,239.302 344.818,239.833 345.604,240.406C345.964,240.672 346.318,240.948 346.661,241.229C348.839,243.016 350.651,245.135 352.063,247.464C352.193,247.677 352.318,247.896 352.443,248.115C353.563,250.104 354.401,252.234 354.932,254.443C354.979,254.641 355.021,254.833 355.063,255.026C355.51,257.094 355.693,259.219 355.594,261.349C355.583,261.563 355.573,261.771 355.557,261.984C355.344,264.984 354.573,267.99 353.203,270.839C353.026,271.219 352.833,271.594 352.625,271.969C352.563,272.083 352.5,272.203 352.438,272.318C345.755,284.161 330.76,288.354 318.948,281.688C317.141,280.672 315.516,279.458 314.083,278.099C313.714,277.75 313.359,277.391 313.021,277.021C310.182,273.969 308.214,270.276 307.214,266.333L307.083,265.797C306.286,262.328 306.234,258.677 307.005,255.115C307.042,254.943 307.078,254.776 307.12,254.609C307.641,252.411 308.474,250.25 309.641,248.182" style="fill:rgb(244,79,47);fill-rule:nonzero;"/>
                    </g>
                </g>
            </g>
        </g>
    </g>
    <g>
        <g>
            <clipPath id="_clip15">
                <path d="M352.052,317.641L271.052,271.953L374.214,89.042L455.219,134.729L352.052,317.641Z"/>
            </clipPath>
            <g clip-path="url(#_clip15)">
                <g>
                    <clipPath id="_clip16">
                        <path d="M352.052,317.641L271.052,271.953L374.214,89.042L455.219,134.729L352.052,317.641Z"/>
                    </clipPath>
                    <g clip-path="url(#_clip16)">
                        <path d="M313.021,277.021C313.573,277.125 314.125,277.224 314.677,277.323C321.917,278.661 328.094,278.875 333.547,277.984C340.234,276.979 346.427,274.198 351.073,271.885C351.781,271.542 352.5,271.188 353.203,270.839C353.026,271.219 352.833,271.594 352.625,271.969C351.984,272.328 351.339,272.693 350.693,273.042C344.182,276.682 338.771,278.729 333.651,279.5C328.313,280.375 322.302,280 315.25,278.365C314.859,278.276 314.464,278.188 314.083,278.099C313.714,277.75 313.359,277.391 313.021,277.021" style="fill:rgb(255,248,215);fill-rule:nonzero;"/>
                    </g>
                </g>
            </g>
        </g>
    </g>
    <g>
        <g>
            <clipPath id="_clip17">
                <path d="M352.052,317.641L271.052,271.953L374.214,89.042L455.219,134.729L352.052,317.641Z"/>
            </clipPath>
            <g clip-path="url(#_clip17)">
                <g>
                    <clipPath id="_clip18">
                        <path d="M352.052,317.641L271.052,271.953L374.214,89.042L455.219,134.729L352.052,317.641Z"/>
                    </clipPath>
                    <g clip-path="url(#_clip18)">
                        <path d="M307.083,265.797C307.786,265.964 308.5,266.13 309.219,266.302C310.854,266.693 312.547,267.099 314.224,267.453C321.417,269.052 327.594,269.495 333.104,268.813C339.859,268.057 346.203,265.516 350.979,263.391C351.875,263 352.792,262.594 353.677,262.198C354.323,261.911 354.958,261.625 355.594,261.349C355.583,261.563 355.573,261.771 355.557,261.984C355.042,262.25 354.531,262.51 354.021,262.771C352.88,263.354 351.703,263.958 350.542,264.526C343.833,267.906 338.307,269.75 333.135,270.323C327.979,270.969 322.286,270.458 315.708,268.766C315.385,268.682 315.068,268.599 314.745,268.51C312.75,267.995 310.734,267.385 308.781,266.802C308.266,266.646 307.74,266.49 307.214,266.333L307.083,265.797" style="fill:rgb(255,248,215);fill-rule:nonzero;"/>
                    </g>
                </g>
            </g>
        </g>
    </g>
    <g>
        <g>
            <clipPath id="_clip19">
                <path d="M352.052,317.641L271.052,271.953L374.214,89.042L455.219,134.729L352.052,317.641Z"/>
            </clipPath>
            <g clip-path="url(#_clip19)">
                <g>
                    <clipPath id="_clip20">
                        <path d="M352.052,317.641L271.052,271.953L374.214,89.042L455.219,134.729L352.052,317.641Z"/>
                    </clipPath>
                    <g clip-path="url(#_clip20)">
                        <path d="M307.12,254.609C307.646,254.781 308.182,254.958 308.724,255.135C310.323,255.661 311.974,256.203 313.615,256.693C314.948,257.109 316.271,257.484 317.531,257.807C322.958,259.208 327.823,259.802 332.406,259.625C339.266,259.453 345.917,257.479 350.943,255.776C351.891,255.469 352.854,255.146 353.786,254.833C354.172,254.698 354.552,254.573 354.932,254.443C354.979,254.641 355.021,254.833 355.063,255.026C354.729,255.156 354.396,255.292 354.068,255.422C352.859,255.901 351.609,256.401 350.375,256.865C343.266,259.641 337.516,260.99 332.26,261.125C328.427,261.271 324.443,260.797 320.068,259.667C318.146,259.177 316.109,258.536 314.021,257.781C312.078,257.104 310.125,256.339 308.234,255.594C307.823,255.432 307.417,255.276 307.005,255.115C307.042,254.943 307.078,254.776 307.12,254.609" style="fill:rgb(255,248,215);fill-rule:nonzero;"/>
                    </g>
                </g>
            </g>
        </g>
    </g>
    <g>
        <g>
            <clipPath id="_clip21">
                <path d="M352.052,317.641L271.052,271.953L374.214,89.042L455.219,134.729L352.052,317.641Z"/>
            </clipPath>
            <g clip-path="url(#_clip21)">
                <g>
                    <clipPath id="_clip22">
                        <path d="M352.052,317.641L271.052,271.953L374.214,89.042L455.219,134.729L352.052,317.641Z"/>
                    </clipPath>
                    <g clip-path="url(#_clip22)">
                        <path d="M310.865,246.229C311.016,246.01 311.172,245.792 311.328,245.578C311.958,245.823 312.589,246.063 313.214,246.292C315.99,247.354 318.568,248.182 321.078,248.828C324.865,249.802 328.375,250.323 331.807,250.417C338.703,250.688 345.552,249.161 350.74,247.802C351.177,247.693 351.62,247.578 352.063,247.464C352.193,247.677 352.318,247.896 352.443,248.115C351.656,248.359 350.865,248.604 350.078,248.839C342.703,251.13 336.818,252.099 331.531,251.891C328.672,251.813 325.672,251.375 322.594,250.583C319.703,249.839 316.74,248.797 313.526,247.396C312.641,247.021 311.75,246.63 310.865,246.229" style="fill:rgb(255,248,215);fill-rule:nonzero;"/>
                    </g>
                </g>
            </g>
        </g>
    </g>
    <g>
        <g>
            <clipPath id="_clip23">
                <path d="M352.052,317.641L271.052,271.953L374.214,89.042L455.219,134.729L352.052,317.641Z"/>
            </clipPath>
            <g clip-path="url(#_clip23)">
                <g>
                    <clipPath id="_clip24">
                        <path d="M352.052,317.641L271.052,271.953L374.214,89.042L455.219,134.729L352.052,317.641Z"/>
                    </clipPath>
                    <g clip-path="url(#_clip24)">
                        <path d="M317.922,239.464C318.359,239.182 318.807,238.922 319.266,238.672C320.589,239.115 321.885,239.495 323.161,239.823C325.948,240.542 328.688,241.005 331.313,241.198C336.255,241.62 341.229,241.13 345.604,240.406C345.964,240.672 346.318,240.948 346.661,241.229C340.536,242.589 335.484,243.042 330.943,242.651C328.714,242.484 326.417,242.099 324.099,241.505C322.089,240.984 320.042,240.313 317.922,239.464" style="fill:rgb(255,248,215);fill-rule:nonzero;"/>
                    </g>
                </g>
            </g>
        </g>
    </g>
</svg>
